<?xml version="1.0" encoding="UTF-8"?>
<svg xmlns="http://www.w3.org/2000/svg" width="16" height="16" viewBox="0 0 16 16">
  <!-- Via server (mux egress): a two-unit server rack, an activity
       light per unit. Shipped ourselves for the same reason as the
       other route icons. Monochrome symbolic icon. -->
  <g fill="#2e3436">
    <path fill-rule="evenodd" d="M3 2h10a1 1 0 0 1 1 1v3a1 1 0 0 1-1 1H3a1 1 0 0 1-1-1V3a1 1 0 0 1 1-1zm0 1v3h10V3zM3 9h10a1 1 0 0 1 1 1v3a1 1 0 0 1-1 1H3a1 1 0 0 1-1-1v-3a1 1 0 0 1 1-1zm0 1v3h10v-3z"/>
    <circle cx="11.5" cy="4.5" r="1"/>
    <circle cx="11.5" cy="11.5" r="1"/>
    <path d="M4 4h5v1H4zM4 11h5v1H4z"/>
  </g>
</svg>
