<?xml version="1.0" encoding="UTF-8"?>
<svg xmlns="http://www.w3.org/2000/svg" width="16" height="16" viewBox="0 0 16 16">
  <!-- Reader view: a page of running text with a title rule. Shipped
       ourselves because `view-reader-mode-symbolic` is a GNOME Web
       icon that a Breeze-based theme chain never resolves, and an
       unresolvable name renders an INVISIBLE button. Monochrome
       symbolic icon: GTK recolours the fill via the -symbolic name. -->
  <g fill="#2e3436">
    <path fill-rule="evenodd" d="M3 1h10a1 1 0 0 1 1 1v12a1 1 0 0 1-1 1H3a1 1 0 0 1-1-1V2a1 1 0 0 1 1-1zm0 1v12h10V2z"/>
    <path d="M4.2 3.6h7.6v1.6H4.2zM4.2 6.8h7.6v1H4.2zM4.2 9h7.6v1H4.2zM4.2 11.2h5v1h-5z"/>
  </g>
</svg>
